# xmcd CD database file
#
# Track frame offsets:
#	150
#	13002
#	26915
#	39643
#	51344
#	54279
#	66805
#	80714
#	93611
#	108945
#	117509
#	132540
#	146217
#	167942
#	180429
#	196973
#
# Disc length: 2772 seconds
#
# Revision: 0
# Processed by: cddbd v1.5PL3 Copyright (c) Steve Scherf et al.
# Submitted via: CDex 1.50
#
DISCID=ed0ad210
DTITLE=Yank Rachell - Too Hot For The Devil
DYEAR=1900
DGENRE=Blues
TTITLE0=Bring It Back Home
TTITLE1=Too Hot For The Devil
TTITLE2=38 Pistol
TTITLE3=Goin To Saint Louis
TTITLE4=Decoration Day Intro
TTITLE5=Decoration Day
TTITLE6=Worried Blues
TTITLE7=Pat Webb Blues
TTITLE8=Yank and Allen Talk
TTITLE9=Yank Rachell Boogie
TTITLE10=Wadie Green
TTITLE11=Roll Me Over Slow
TTITLE12=Leave Here Walkin'
TTITLE13=Potato Diggin Man
TTITLE14=Blues For Allen
TTITLE15=Yank Talks
EXTD=
EXTT0=
EXTT1=
EXTT2=
EXTT3=
EXTT4=
EXTT5=
EXTT6=
EXTT7=
EXTT8=
EXTT9=
EXTT10=
EXTT11=
EXTT12=
EXTT13=
EXTT14=
EXTT15=
PLAYORDER=
